<?xml version="1.0" encoding="utf-8" ?>
<svg xmlns="http://www.w3.org/2000/svg" xmlns:xlink="http://www.w3.org/1999/xlink" width="235" height="130">
	<path transform="scale(1 1)" d="M0 0L225 0L225 225L0 225L0 0Z"/>
	<path fill="#FECF05" transform="scale(0.5 0.5) translate(100, 7)" d="M120.959 26.4707C121.367 26.8463 121.569 28.0507 121.825 28.6054C123.696 32.66 124.674 32.5898 128.626 34.039C127.856 34.734 126.388 35.0634 125.455 35.6197C122.937 37.121 121.817 39.3326 121.119 42.0533C120.798 41.7584 120.649 41.0414 120.475 40.6371C118.861 36.8893 116.952 35.6304 113.248 34.1687L113.246 33.9261C114.302 33.6896 115.509 33.5107 116.464 32.9835C118.885 31.6475 120.218 29.0179 120.959 26.4707Z"/>
	<path fill="#FECF05" transform="scale(0.5 0.5) translate(100, 7)" d="M63.0727 115.654C65.1223 116.372 68.775 119.476 71.1585 120.703C81.8329 126.198 92.6685 129.063 104.636 129.611C109.292 129.825 117.641 129.079 121.037 132.823C121.912 133.787 122.415 134.978 122.312 136.29C122.162 138.202 121.066 139.281 119.706 140.466Q119.501 140.604 119.29 140.733C113.663 144.186 104.165 143.222 98.0692 141.767C84.2938 138.479 70.5006 127.746 63.0727 115.654Z"/>
	<path fill="#FEFEFE" transform="scale(0.5 0.5) translate(100, 7)" d="M143.279 158.703L173.407 158.735C173.281 161.807 173.381 164.919 173.319 167.998L153.01 167.982L153.018 177.046L171.75 177.04L171.744 183.312L171.745 186.266L153.007 186.276L153.003 203.735L143.26 203.724L143.279 158.703Z"/>
	<path fill="#FEFEFE" transform="scale(0.5 0.5) translate(100, 7)" d="M119.796 157.605Q120.229 157.562 120.664 157.557C127.127 157.517 131.894 159.7 136.454 164.158C133.81 166.238 131.247 168.448 128.672 170.614Q128.169 170.07 127.634 169.557C125.635 167.657 122.565 166.606 119.825 166.706C116.542 166.826 113.332 168.474 111.139 170.888C108.238 174.08 107.23 178.253 107.458 182.479C107.661 186.242 109.002 189.88 111.866 192.435C114.248 194.559 117.614 195.726 120.8 195.532C124.454 195.309 126.955 193.367 129.265 190.738C130.578 191.971 132.178 193.011 133.625 194.089C134.939 195.114 136.298 196.089 137.634 197.084C133.58 201.333 129.369 204.155 123.382 204.702C116.94 205.289 110.059 203.61 105.043 199.425C100.244 195.422 97.6698 189.968 97.1115 183.786C96.5384 177.44 98.0634 170.711 102.211 165.754C106.74 160.342 112.964 158.226 119.796 157.605Z"/>
	<path fill="#FEFEFE" transform="scale(0.5 0.5) translate(100, 7)" d="M81.2858 158.716L91.241 158.728L91.2423 168.125L91.2659 179.433C91.2734 186.458 91.7258 194.262 86.3622 199.66C82.6525 203.394 77.4531 204.789 72.3119 204.794C67.1369 204.799 62.0346 203.368 58.3081 199.622C56.4481 197.753 55.1208 195.54 54.3895 193.005C52.7519 187.328 53.2801 180.926 53.2863 175.057L53.332 158.716L63.3122 158.734C63.4898 165.073 63.3333 171.448 63.3286 177.79C63.3259 181.411 63.0006 185.438 63.8355 188.976C64.1769 190.423 64.8684 191.74 65.9061 192.811Q66.218 193.134 66.5605 193.424Q66.9029 193.714 67.2726 193.969Q67.6422 194.224 68.0353 194.44Q68.4284 194.657 68.8412 194.834Q69.2539 195.01 69.6821 195.145Q70.1103 195.279 70.5498 195.371Q70.9893 195.462 71.4357 195.509Q71.8821 195.556 72.331 195.559Q72.7626 195.558 73.192 195.514Q73.6214 195.471 74.0444 195.385Q74.4675 195.3 74.88 195.173Q75.2925 195.046 75.6905 194.879Q76.0886 194.712 76.4682 194.507Q76.8478 194.301 77.2054 194.059Q77.563 193.818 77.895 193.542Q78.227 193.266 78.5302 192.959C79.7743 191.711 80.5446 190.148 80.9113 188.436C81.6905 184.798 81.2968 180.582 81.2898 176.857L81.2858 158.716Z"/>
	<path fill="#FECF05" transform="scale(0.5 0.5) translate(100, 7)" d="M56.9265 62.4703C57.3547 63.0782 57.0091 65.2651 57.0244 66.1157C57.0931 69.9544 57.5528 73.9643 58.5068 77.6787C63.7508 98.098 81.528 107.867 100.431 113.161C107.341 115.096 114.952 116.268 121.184 119.963C124.006 121.636 126.57 123.882 127.385 127.199C128.278 130.834 126.558 133.935 124.742 136.925L124.492 136.763C124.648 135.582 124.789 133.963 124.232 132.869C123.193 130.828 121.378 129.627 119.265 128.899C114.315 127.194 108.702 127.46 103.535 126.993C96.868 126.39 90.1352 125.218 83.7499 123.177C73.7851 119.99 63.9382 114.566 59.0058 104.927C52.6278 92.4633 52.6562 75.6684 56.9265 62.4703Z"/>
	<path fill="#FECF05" transform="scale(0.5 0.5) translate(100, 7)" d="M86.4239 27.99L86.7831 28.0479C86.6157 28.9577 83.5509 31.5989 82.781 32.5217Q80.2763 35.57 78.3124 38.9917C73.5511 47.3133 72.6539 57.3442 75.1722 66.547C78.7067 79.4629 90.1409 91.0416 101.778 97.2886C108.79 101.053 116.333 103.752 123.25 107.7C127.773 110.28 132.101 113.56 133.516 118.823C135.13 124.83 132.716 129.555 129.783 134.619C130.282 131.531 130.773 128.615 129.825 125.569C129.556 124.899 129.207 124.263 128.845 123.639C123.758 114.872 111.104 113.495 102.178 111.142C88.042 107.416 72.5119 100.315 64.9202 87.2083C59.8513 78.4574 58.4195 66.9745 61.0384 57.2221C64.6051 43.9404 74.8979 34.6083 86.4239 27.99Z"/>
	<path fill="#FECF05" transform="scale(0.5 0.5) translate(100, 7)" d="M119.65 18.1078C124.096 17.9156 128.586 17.9406 132.966 18.8027C131.358 18.9417 129.743 19.0779 128.147 19.3201C117.365 20.9562 106.976 26.1637 100.444 35.0743C84.527 56.7891 103.956 74.0347 119.766 87.5241C124.95 91.9472 130.639 96.2703 134.877 101.656C137.652 105.182 139.659 109.139 140.326 113.607C141.267 119.917 139.138 126.379 135.385 131.441L135.047 131.473L135.192 130.947C135.981 128.231 136.581 125.527 136.424 122.678C136.228 119.129 135.154 115.318 133.006 112.444C127.695 105.336 113.681 100.519 105.876 96.6172C100.603 93.9805 95.7193 90.7937 91.3248 86.8517C82.8451 79.2451 77.0119 68.9427 76.4214 57.4211Q76.3716 56.5824 76.3641 55.7422Q76.3565 54.9021 76.3913 54.0626Q76.426 53.2232 76.5029 52.3865Q76.5798 51.5499 76.6988 50.7182Q76.8177 49.8864 76.9783 49.0618Q77.139 48.2371 77.3409 47.4215Q77.5428 46.606 77.7855 45.8016Q78.0282 44.9972 78.311 44.2061Q78.5939 43.415 78.9162 42.6391Q79.2385 41.8632 79.5994 41.1045Q79.9603 40.3457 80.359 39.6062Q80.7576 38.8666 81.193 38.148Q81.6283 37.4294 82.0993 36.7336Q82.5702 36.0378 83.0756 35.3667Q83.5809 34.6955 84.1194 34.0505Q84.6579 33.4056 85.2282 32.7886C94.2136 22.8806 106.604 18.7453 119.65 18.1078Z"/>
	<path fill="#FECF05" transform="scale(0.5 0.5) translate(100, 7)" d="M152.371 47.1901C153.381 48.2027 157.894 72.6916 158.217 75.6027C156.502 79.1396 153.022 80.795 149.777 82.6637C148.786 78.9667 146.794 74.1597 143.808 71.6011C142.594 70.5608 140.836 69.4937 139.166 69.6673C138.251 69.7624 137.469 70.3125 136.924 71.0307C135.531 72.8666 135.176 75.8404 135.465 78.0904C135.877 81.291 137.787 84.5561 140.367 86.4948C142.031 87.7447 144.043 88.3097 146.107 87.9849C150.766 87.252 156.824 82.4891 160.044 79.0774C161.557 77.4744 162.839 75.629 164.144 73.8558C166.706 75.8359 168.864 78.2047 171.037 80.5883C170.716 87.6897 170.244 94.7666 169.823 101.861C169.622 105.257 169.695 108.757 169.26 112.126C169.12 113.214 168.903 114.733 168.3 115.657C166.232 118.833 161.363 119.422 157.944 120.056Q159.373 114.913 161.031 109.839C162.184 109.946 163.344 110.006 164.5 110.086C164.286 104.885 163.933 99.6876 163.742 94.4876C163.671 92.5648 164.063 90.0489 163.579 88.2147L163.271 88.5452C159.701 107.417 150.733 120.325 137.076 133.358C139.963 127.473 142.652 124.402 142.823 117.404C143.18 102.864 130.643 93.9564 121.028 85.2075Q114.113 78.8774 107.707 72.033C112.775 64.4135 119.467 54.8929 128.536 51.9967C135.63 49.7313 142.329 50.4695 148.855 53.8194C150.102 52.6577 151.548 48.8569 152.371 47.1901Z"/>
</svg>
