<?xml version="1.0" encoding="UTF-8"?>
<svg id="Layer_1" xmlns="http://www.w3.org/2000/svg" version="1.1" viewBox="0 0 102.25 102.25">
  <!-- Generator: Adobe Illustrator 29.7.1, SVG Export Plug-In . SVG Version: 2.1.1 Build 8)  -->
  <defs>
    <style>
      .st0 {
        fill: #fff;
      }

      .st1, .st2 {
        fill: #001eff;
      }

      .st2 {
        opacity: .58;
      }
    </style>
  </defs>
  <g id="FG">
    <g>
      <circle class="st2" cx="51.09" cy="51.12" r="51.12"/>
      <circle class="st1" cx="51.12" cy="51.12" r="40.12"/>
      <path class="st0" d="M69.7,29.55c-2.44-2.44-5.34-4.38-8.53-5.7-6.44-2.64-13.65-2.64-20.09,0-3.19,1.32-6.09,3.26-8.53,5.7l-2.64-2.64c1.4-1.39,2.93-2.65,4.57-3.75,1.63-1.08,3.36-2.01,5.17-2.76,1.8-.75,3.68-1.32,5.6-1.7,3.88-.77,7.87-.77,11.75,0,1.92.37,3.79.94,5.59,1.7,3.65,1.5,6.96,3.72,9.75,6.51l-2.64,2.64ZM32.37,44.37h37.5v33.75h-37.5v-33.75ZM64.37,34.85c-7.33-7.33-19.22-7.33-26.55,0l-2.63-2.63c8.71-8.78,22.89-8.84,31.68-.13.04.04.09.09.13.13l-2.63,2.63ZM36.12,74.37h30v-26.25h-30v26.25ZM40.52,37.52c5.8-5.86,15.26-5.9,21.11-.1.03.03.06.06.1.1l-2.64,2.64c-1.04-1.05-2.28-1.88-3.64-2.44-2.77-1.13-5.88-1.13-8.65,0-1.36.56-2.6,1.39-3.64,2.44l-2.64-2.64ZM47.37,66.87h7.5v3.75h-7.5v-3.75Z"/>
    </g>
  </g>
</svg>